<svg width="90" height="90" viewBox="0 0 90 90" fill="none" xmlns="http://www.w3.org/2000/svg">
<rect x="1.5" y="1.5" width="87" height="87" rx="4.5" fill="white" stroke="#43C237" stroke-width="3"/>
<path d="M2 79H88" stroke="#43C237"/>
<rect x="9" y="9" width="31" height="21" rx="2" fill="#43C237" fill-opacity="0.5"/>
<rect x="50" y="39" width="31" height="15" rx="2" fill="#43C237" fill-opacity="0.5"/>
<rect x="9" y="41" width="24" height="4" rx="2" fill="#43C237" fill-opacity="0.5"/>
<rect x="50" y="65" width="24" height="4" rx="2" fill="#43C237" fill-opacity="0.5"/>
<rect x="9" y="48" width="29" height="2" rx="1" fill="#43C237" fill-opacity="0.3"/>
<rect x="50" y="72" width="29" height="2" rx="1" fill="#43C237" fill-opacity="0.3"/>
<rect x="9" y="53" width="26" height="2" rx="1" fill="#43C237" fill-opacity="0.3"/>
<rect x="50" y="77" width="26" height="2" rx="1" fill="#43C237" fill-opacity="0.3"/>
<rect x="9" y="58" width="27" height="2" rx="1" fill="#43C237" fill-opacity="0.3"/>
<rect x="9" y="63" width="17" height="2" rx="1" fill="#43C237" fill-opacity="0.3"/>
<circle cx="17" cy="34" r="2" fill="#43C237" fill-opacity="0.5"/>
<circle cx="25" cy="34" r="2" fill="#43C237"/>
<circle cx="33" cy="34" r="2" fill="#43C237" fill-opacity="0.5"/>
<circle cx="58" cy="58" r="2" fill="#43C237" fill-opacity="0.5"/>
<circle cx="66" cy="58" r="2" fill="#43C237"/>
<circle cx="74" cy="58" r="2" fill="#43C237" fill-opacity="0.5"/>
<path d="M45 18V79" stroke="#E1E6EB"/>
<circle cx="45" cy="20" r="2" fill="#43C237"/>
<circle cx="45" cy="47" r="2" fill="#43C237"/>
</svg>
