<svg width="90" height="90" viewBox="0 0 90 90" fill="none" xmlns="http://www.w3.org/2000/svg">
<rect x="1.5" y="1.5" width="87" height="87" rx="4.5" fill="white" stroke="#43C237" stroke-width="3"/>
<path d="M2 79H88" stroke="#43C237"/>
<rect x="24" y="9" width="57" height="29" rx="2" fill="#43C237" fill-opacity="0.5"/>
<rect x="9" y="9" width="12" height="13" rx="2" fill="#43C237" fill-opacity="0.5"/>
<rect x="24" y="48" width="37" height="4" rx="2" fill="#43C237" fill-opacity="0.5"/>
<rect x="24" y="54" width="57" height="2" rx="1" fill="#43C237" fill-opacity="0.3"/>
<rect x="24" y="59" width="50" height="2" rx="1" fill="#43C237" fill-opacity="0.3"/>
<rect x="24" y="64" width="54" height="2" rx="1" fill="#43C237" fill-opacity="0.3"/>
<rect x="24" y="69" width="35" height="2" rx="1" fill="#43C237" fill-opacity="0.3"/>
<path d="M9 20H21V20C21 21.1046 20.1046 22 19 22H11C9.89543 22 9 21.1046 9 20V20Z" fill="#43C237"/>
<circle cx="45" cy="42" r="2" fill="#43C237" fill-opacity="0.5"/>
<circle cx="53" cy="42" r="2" fill="#43C237"/>
<circle cx="61" cy="42" r="2" fill="#43C237" fill-opacity="0.5"/>
</svg>
