<svg width="90" height="90" viewBox="0 0 90 90" fill="none" xmlns="http://www.w3.org/2000/svg">
<rect x="1.5" y="1.5" width="87" height="87" rx="4.5" fill="white" stroke="#43C237" stroke-width="3"/>
<path d="M2 79H88" stroke="#43C237"/>
<rect x="9" y="9" width="34" height="21" rx="2" fill="#43C237" fill-opacity="0.5"/>
<path d="M9 75C9 73.8954 9.89543 73 11 73H41C42.1046 73 43 73.8954 43 75V79H9V75Z" fill="#43C237" fill-opacity="0.5"/>
<rect x="47" y="9" width="34" height="15" rx="2" fill="#43C237" fill-opacity="0.5"/>
<rect x="47" y="57" width="34" height="15" rx="2" fill="#43C237" fill-opacity="0.5"/>
<rect x="9" y="41" width="26" height="4" rx="2" fill="#43C237" fill-opacity="0.5"/>
<rect x="47" y="35" width="26" height="4" rx="2" fill="#43C237" fill-opacity="0.5"/>
<rect x="9" y="48" width="32" height="2" rx="1" fill="#43C237" fill-opacity="0.3"/>
<rect x="47" y="42" width="32" height="2" rx="1" fill="#43C237" fill-opacity="0.3"/>
<rect x="9" y="53" width="28" height="2" rx="1" fill="#43C237" fill-opacity="0.3"/>
<rect x="47" y="47" width="28" height="2" rx="1" fill="#43C237" fill-opacity="0.3"/>
<rect x="9" y="58" width="30" height="2" rx="1" fill="#43C237" fill-opacity="0.3"/>
<rect x="9" y="63" width="19" height="2" rx="1" fill="#43C237" fill-opacity="0.3"/>
<circle cx="19" cy="34" r="2" fill="#43C237" fill-opacity="0.5"/>
<circle cx="27" cy="34" r="2" fill="#43C237"/>
<circle cx="35" cy="34" r="2" fill="#43C237" fill-opacity="0.5"/>
<circle cx="56" cy="28" r="2" fill="#43C237" fill-opacity="0.5"/>
<circle cx="64" cy="28" r="2" fill="#43C237"/>
<circle cx="72" cy="28" r="2" fill="#43C237" fill-opacity="0.5"/>
<circle cx="56" cy="76" r="2" fill="#43C237" fill-opacity="0.5"/>
<circle cx="64" cy="76" r="2" fill="#43C237"/>
<circle cx="72" cy="76" r="2" fill="#43C237" fill-opacity="0.5"/>
</svg>
