<svg width="90" height="90" viewBox="0 0 90 90" fill="none" xmlns="http://www.w3.org/2000/svg">
<rect x="1.5" y="1.5" width="87" height="87" rx="4.5" fill="white" stroke="#43C237" stroke-width="3"/>
<path d="M2 79H88" stroke="#43C237"/>
<rect x="9" y="9" width="32" height="21" rx="2" fill="#43C237" fill-opacity="0.5"/>
<rect x="9" y="44" width="32" height="21" rx="2" fill="#43C237" fill-opacity="0.5"/>
<rect x="46" y="9" width="28" height="4" rx="2" fill="#43C237" fill-opacity="0.5"/>
<rect x="46" y="44" width="28" height="4" rx="2" fill="#43C237" fill-opacity="0.5"/>
<rect x="46" y="19" width="35" height="2" rx="1" fill="#43C237" fill-opacity="0.3"/>
<rect x="46" y="54" width="35" height="2" rx="1" fill="#43C237" fill-opacity="0.3"/>
<rect x="46" y="24" width="31" height="2" rx="1" fill="#43C237" fill-opacity="0.3"/>
<rect x="46" y="59" width="31" height="2" rx="1" fill="#43C237" fill-opacity="0.3"/>
<rect x="46" y="29" width="33" height="2" rx="1" fill="#43C237" fill-opacity="0.3"/>
<rect x="46" y="64" width="33" height="2" rx="1" fill="#43C237" fill-opacity="0.3"/>
<rect x="46" y="34" width="21" height="2" rx="1" fill="#43C237" fill-opacity="0.3"/>
<rect x="46" y="69" width="21" height="2" rx="1" fill="#43C237" fill-opacity="0.3"/>
<circle cx="17" cy="34" r="2" fill="#43C237" fill-opacity="0.5"/>
<circle cx="25" cy="34" r="2" fill="#43C237"/>
<circle cx="33" cy="34" r="2" fill="#43C237" fill-opacity="0.5"/>
<circle cx="17" cy="69" r="2" fill="#43C237" fill-opacity="0.5"/>
<circle cx="25" cy="69" r="2" fill="#43C237"/>
<circle cx="33" cy="69" r="2" fill="#43C237" fill-opacity="0.5"/>
</svg>
