<svg width="90" height="90" viewBox="0 0 90 90" fill="none" xmlns="http://www.w3.org/2000/svg">
<rect x="1.5" y="1.5" width="87" height="87" rx="4.5" fill="white" stroke="#43C237" stroke-width="3"/>
<path d="M2 79H88" stroke="#43C237"/>
<rect x="9" y="9" width="72" height="34" rx="2" fill="#43C237" fill-opacity="0.5"/>
<rect x="9" y="48" width="47" height="4" rx="2" fill="#43C237" fill-opacity="0.5"/>
<rect x="9" y="54" width="72" height="2" rx="1" fill="#43C237" fill-opacity="0.3"/>
<rect x="9" y="59" width="63" height="2" rx="1" fill="#43C237" fill-opacity="0.3"/>
<rect x="15" y="64" width="62" height="2" rx="1" fill="#43C237" fill-opacity="0.3"/>
<rect x="15" y="68" width="40" height="2" rx="1" fill="#43C237" fill-opacity="0.3"/>
<rect x="15" y="72" width="44" height="2" rx="1" fill="#43C237" fill-opacity="0.3"/>
<rect x="9" y="64" width="4" height="2" rx="1" fill="#43C237"/>
<rect x="9" y="68" width="4" height="2" rx="1" fill="#43C237"/>
<rect x="9" y="72" width="4" height="2" rx="1" fill="#43C237"/>
</svg>
