<svg width="90" height="90" viewBox="0 0 90 90" fill="none" xmlns="http://www.w3.org/2000/svg">
<rect x="1.5" y="1.5" width="87" height="87" rx="4.5" fill="white" stroke="#43C237" stroke-width="3"/>
<path d="M2 79H88" stroke="#43C237"/>
<rect x="9" y="9" width="24" height="55" rx="2" fill="#43C237" fill-opacity="0.5"/>
<rect x="9.5" y="9.5" width="71" height="54" rx="1.5" stroke="#43C237" stroke-opacity="0.5"/>
<rect x="41" y="16" width="26" height="4" rx="2" fill="#43C237" fill-opacity="0.5"/>
<rect x="41" y="24" width="31" height="2" rx="1" fill="#43C237" fill-opacity="0.3"/>
<rect x="41" y="34" width="31" height="2" rx="1" fill="#43C237" fill-opacity="0.3"/>
<rect x="41" y="44" width="31" height="2" rx="1" fill="#43C237" fill-opacity="0.3"/>
<rect x="41" y="29" width="27" height="2" rx="1" fill="#43C237" fill-opacity="0.3"/>
<rect x="41" y="39" width="27" height="2" rx="1" fill="#43C237" fill-opacity="0.3"/>
<rect x="41" y="50" width="18" height="6" rx="2" fill="#43C237"/>
<rect x="45" y="52" width="10" height="2" rx="1" fill="white"/>
</svg>
