<svg width="90" height="122" viewBox="0 0 90 122" fill="none" xmlns="http://www.w3.org/2000/svg">
<rect x="1.5" y="1.5" width="87" height="119" rx="4.5" fill="white" stroke="#43C237" stroke-width="3"/>
<rect x="9" y="9" width="72" height="53" rx="2" fill="#43C237" fill-opacity="0.5"/>
<rect x="30" y="21" width="30" height="30" rx="15" fill="white"/>
<rect x="9" y="95" width="40" height="4" rx="2" fill="#43C237"/>
<rect x="9" y="89" width="44" height="2" rx="1" fill="#43C237" fill-opacity="0.3"/>
<path d="M12 102L12.9346 103.714L14.8532 104.073L13.5122 105.491L13.7634 107.427L12 106.59L10.2366 107.427L10.4878 105.491L9.14683 104.073L11.0654 103.714L12 102Z" fill="#C7EDC3"/>
<path d="M20 102L20.9346 103.714L22.8532 104.073L21.5122 105.491L21.7634 107.427L20 106.59L18.2366 107.427L18.4878 105.491L17.1468 104.073L19.0654 103.714L20 102Z" fill="#C7EDC3"/>
<path d="M28 102L28.9346 103.714L30.8532 104.073L29.5122 105.491L29.7634 107.427L28 106.59L26.2366 107.427L26.4878 105.491L25.1468 104.073L27.0654 103.714L28 102Z" fill="#C7EDC3"/>
<path d="M36 102L36.9346 103.714L38.8532 104.073L37.5122 105.491L37.7634 107.427L36 106.59L34.2366 107.427L34.4878 105.491L33.1468 104.073L35.0654 103.714L36 102Z" fill="#C7EDC3"/>
<path d="M44 102L44.9346 103.714L46.8532 104.073L45.5122 105.491L45.7634 107.427L44 106.59L42.2366 107.427L42.4878 105.491L41.1468 104.073L43.0654 103.714L44 102Z" fill="#C7EDC3"/>
<path d="M77.6641 89C79.5953 89 80.8625 90.8104 80.8625 92.5001C80.8625 95.8796 75.552 98.6556 75.4313 98.6556C75.3106 98.6556 70 95.8796 70 92.5001C70 90.8104 71.2673 89 73.1984 89C74.2847 89 75.0088 89.5431 75.4313 90.0259C75.8537 89.5431 76.5779 89 77.6641 89Z" stroke="#43C237" stroke-width="1.2" stroke-miterlimit="10" stroke-linecap="round" stroke-linejoin="round"/>
<rect x="9" y="69" width="72" height="12" rx="2" fill="#43C237"/>
<rect x="20" y="74" width="50" height="2" rx="1" fill="white"/>
<path d="M46.0753 31.287C45.9466 30.5792 45.2387 30 44.4665 30C43.6942 30 42.9864 30.5792 42.8577 31.287" stroke="#43C237" stroke-width="1.2" stroke-miterlimit="10" stroke-linecap="round" stroke-linejoin="round"/>
<path d="M49.6145 38.6876L48.9067 34.3116C48.778 33.6681 48.2631 33.2177 47.6196 33.2177H42.021C41.3775 33.2177 40.8627 33.6681 40.734 34.3116L40.0261 38.6876C39.8331 39.8459 40.734 40.9399 41.9567 40.9399H47.684C48.9066 40.9399 49.8076 39.8459 49.6145 38.6876Z" stroke="#43C237" stroke-width="1.2" stroke-miterlimit="10" stroke-linecap="round" stroke-linejoin="round"/>
</svg>
