<svg width="90" height="122" viewBox="0 0 90 122" fill="none" xmlns="http://www.w3.org/2000/svg">
<rect x="1.5" y="1.5" width="87" height="119" rx="4.5" fill="white" stroke="#43C237" stroke-width="3"/>
<rect x="9" y="9" width="72" height="53" rx="2" fill="#43C237" fill-opacity="0.5"/>
<path d="M72.6641 15C74.5953 15 75.8625 16.8104 75.8625 18.5001C75.8625 21.8796 70.552 24.6556 70.4313 24.6556C70.3106 24.6556 65 21.8796 65 18.5001C65 16.8104 66.2673 15 68.1984 15C69.2847 15 70.0088 15.5431 70.4313 16.0259C70.8537 15.5431 71.5779 15 72.6641 15Z" stroke="#43C237" stroke-width="1.2" stroke-miterlimit="10" stroke-linecap="round" stroke-linejoin="round"/>
<rect x="9" y="50" width="72" height="12" rx="2" fill="#43C237"/>
<rect x="20" y="55" width="50" height="2" rx="1" fill="white"/>
<rect x="25" y="73" width="40" height="4" rx="2" fill="#43C237"/>
<rect x="36" y="89" width="18" height="4" rx="2" fill="#43C237"/>
<rect x="23" y="67" width="44" height="2" rx="1" fill="#43C237" fill-opacity="0.3"/>
<path d="M29 80L29.9346 81.7137L31.8532 82.0729L30.5122 83.4913L30.7634 85.4271L29 84.59L27.2366 85.4271L27.4878 83.4913L26.1468 82.0729L28.0654 81.7137L29 80Z" fill="#C7EDC3"/>
<path d="M37 80L37.9346 81.7137L39.8532 82.0729L38.5122 83.4913L38.7634 85.4271L37 84.59L35.2366 85.4271L35.4878 83.4913L34.1468 82.0729L36.0654 81.7137L37 80Z" fill="#C7EDC3"/>
<path d="M45 80L45.9346 81.7137L47.8532 82.0729L46.5122 83.4913L46.7634 85.4271L45 84.59L43.2366 85.4271L43.4878 83.4913L42.1468 82.0729L44.0654 81.7137L45 80Z" fill="#C7EDC3"/>
<path d="M53 80L53.9346 81.7137L55.8532 82.0729L54.5122 83.4913L54.7634 85.4271L53 84.59L51.2366 85.4271L51.4878 83.4913L50.1468 82.0729L52.0654 81.7137L53 80Z" fill="#C7EDC3"/>
<path d="M61 80L61.9346 81.7137L63.8532 82.0729L62.5122 83.4913L62.7634 85.4271L61 84.59L59.2366 85.4271L59.4878 83.4913L58.1468 82.0729L60.0654 81.7137L61 80Z" fill="#C7EDC3"/>
<rect x="37" y="98" width="44" height="12" rx="2" fill="#43C237"/>
<rect x="9" y="98" width="25" height="12" rx="2" fill="#C7EDC3"/>
<rect x="44" y="103" width="30" height="2" rx="1" fill="white"/>
<rect x="17" y="103" width="9" height="2" rx="1" fill="#43C237"/>
</svg>
