<svg width="90" height="122" viewBox="0 0 90 122" fill="none" xmlns="http://www.w3.org/2000/svg">
<rect x="1.5" y="1.5" width="87" height="119" rx="4.5" fill="white" stroke="#C3CCD6" stroke-width="3"/>
<rect x="9" y="9" width="72" height="53" rx="2" fill="#C3CCD6" fill-opacity="0.5"/>
<rect x="9" y="95" width="40" height="4" rx="2" fill="#C3CCD6"/>
<rect x="9" y="89" width="44" height="2" rx="1" fill="#C3CCD6" fill-opacity="0.3"/>
<path d="M12 102L12.9346 103.714L14.8532 104.073L13.5122 105.491L13.7634 107.427L12 106.59L10.2366 107.427L10.4878 105.491L9.14683 104.073L11.0654 103.714L12 102Z" fill="#E1E6EB"/>
<path d="M20 102L20.9346 103.714L22.8532 104.073L21.5122 105.491L21.7634 107.427L20 106.59L18.2366 107.427L18.4878 105.491L17.1468 104.073L19.0654 103.714L20 102Z" fill="#E1E6EB"/>
<path d="M28 102L28.9346 103.714L30.8532 104.073L29.5122 105.491L29.7634 107.427L28 106.59L26.2366 107.427L26.4878 105.491L25.1468 104.073L27.0654 103.714L28 102Z" fill="#E1E6EB"/>
<path d="M36 102L36.9346 103.714L38.8532 104.073L37.5122 105.491L37.7634 107.427L36 106.59L34.2366 107.427L34.4878 105.491L33.1468 104.073L35.0654 103.714L36 102Z" fill="#E1E6EB"/>
<path d="M44 102L44.9346 103.714L46.8532 104.073L45.5122 105.491L45.7634 107.427L44 106.59L42.2366 107.427L42.4878 105.491L41.1468 104.073L43.0654 103.714L44 102Z" fill="#E1E6EB"/>
<path d="M77.6641 89C79.5953 89 80.8625 90.8104 80.8625 92.5001C80.8625 95.8796 75.552 98.6556 75.4313 98.6556C75.3106 98.6556 70 95.8796 70 92.5001C70 90.8104 71.2673 89 73.1984 89C74.2847 89 75.0088 89.5431 75.4313 90.0259C75.8537 89.5431 76.5779 89 77.6641 89Z" stroke="#C3CCD6" stroke-width="1.2" stroke-miterlimit="10" stroke-linecap="round" stroke-linejoin="round"/>
<rect x="9" y="69" width="72" height="12" rx="2" fill="#C3CCD6"/>
<rect x="20" y="74" width="50" height="2" rx="1" fill="white"/>
<path d="M72.0752 15.287C71.9465 14.5792 71.2386 14 70.4664 14C69.6941 14 68.9863 14.5792 68.8576 15.287" stroke="#C3CCD6" stroke-width="1.2" stroke-miterlimit="10" stroke-linecap="round" stroke-linejoin="round"/>
<path d="M75.6145 22.6875L74.9067 18.3116C74.778 17.6681 74.2631 17.2176 73.6196 17.2176H68.021C67.3775 17.2176 66.8627 17.6681 66.734 18.3116L66.0261 22.6875C65.8331 23.8458 66.734 24.9398 67.9567 24.9398H73.684C74.9066 24.9398 75.8076 23.8458 75.6145 22.6875Z" stroke="#C3CCD6" stroke-width="1.2" stroke-miterlimit="10" stroke-linecap="round" stroke-linejoin="round"/>
</svg>
