<svg width="90" height="122" viewBox="0 0 90 122" fill="none" xmlns="http://www.w3.org/2000/svg">
<rect x="1.5" y="1.5" width="87" height="119" rx="4.5" fill="white" stroke="#43C237" stroke-width="3"/>
<rect width="90" height="122" rx="7" fill="#43C237" fill-opacity="0.5"/>
<path d="M75.6641 11C77.5953 11 78.8625 12.8104 78.8625 14.5001C78.8625 17.8796 73.552 20.6556 73.4313 20.6556C73.3106 20.6556 68 17.8796 68 14.5001C68 12.8104 69.2673 11 71.1984 11C72.2847 11 73.0088 11.5431 73.4313 12.0259C73.8537 11.5431 74.5779 11 75.6641 11Z" stroke="#43C237" stroke-width="1.2" stroke-miterlimit="10" stroke-linecap="round" stroke-linejoin="round"/>
<rect x="9" y="92" width="40" height="4" rx="2" fill="white"/>
<rect x="9" y="108" width="18" height="4" rx="2" fill="white"/>
<rect x="9" y="86" width="44" height="2" rx="1" fill="white"/>
<path d="M12 99L12.9346 100.714L14.8532 101.073L13.5122 102.491L13.7634 104.427L12 103.59L10.2366 104.427L10.4878 102.491L9.14683 101.073L11.0654 100.714L12 99Z" fill="white"/>
<path d="M20 99L20.9346 100.714L22.8532 101.073L21.5122 102.491L21.7634 104.427L20 103.59L18.2366 104.427L18.4878 102.491L17.1468 101.073L19.0654 100.714L20 99Z" fill="white"/>
<path d="M28 99L28.9346 100.714L30.8532 101.073L29.5122 102.491L29.7634 104.427L28 103.59L26.2366 104.427L26.4878 102.491L25.1468 101.073L27.0654 100.714L28 99Z" fill="white"/>
<path d="M36 99L36.9346 100.714L38.8532 101.073L37.5122 102.491L37.7634 104.427L36 103.59L34.2366 104.427L34.4878 102.491L33.1468 101.073L35.0654 100.714L36 99Z" fill="white"/>
<path d="M44 99L44.9346 100.714L46.8532 101.073L45.5122 102.491L45.7634 104.427L44 103.59L42.2366 104.427L42.4878 102.491L41.1468 101.073L43.0654 100.714L44 99Z" fill="white"/>
<path d="M58.0751 11.287C57.9464 10.5792 57.2386 10 56.4663 10C55.6941 10 54.9862 10.5792 54.8575 11.287" stroke="#43C237" stroke-width="1.2" stroke-miterlimit="10" stroke-linecap="round" stroke-linejoin="round"/>
<path d="M61.6145 18.6875L60.9067 14.3116C60.778 13.6681 60.2631 13.2176 59.6196 13.2176H54.021C53.3775 13.2176 52.8627 13.6681 52.734 14.3116L52.0261 18.6875C51.8331 19.8458 52.734 20.9398 53.9567 20.9398H59.684C60.9066 20.9398 61.8076 19.8458 61.6145 18.6875Z" stroke="#43C237" stroke-width="1.2" stroke-miterlimit="10" stroke-linecap="round" stroke-linejoin="round"/>
<rect x="22" y="53" width="46" height="12" rx="2" fill="#43C237"/>
<rect x="29" y="58" width="32" height="2" rx="1" fill="white"/>
</svg>
