<svg width="90" height="108" viewBox="0 0 90 108" fill="none" xmlns="http://www.w3.org/2000/svg">
<rect x="1.5" y="1.5" width="87" height="105" rx="4.5" fill="white" stroke="#43C237" stroke-width="3"/>
<rect width="90" height="46" rx="2" fill="#43C237" fill-opacity="0.5"/>
<path d="M78.6641 10C80.5953 10 81.8625 11.8104 81.8625 13.5001C81.8625 16.8796 76.552 19.6556 76.4313 19.6556C76.3106 19.6556 71 16.8796 71 13.5001C71 11.8104 72.2673 10 74.1984 10C75.2847 10 76.0088 10.5431 76.4313 11.0259C76.8537 10.5431 77.5779 10 78.6641 10Z" stroke="#43C237" stroke-width="1.2" stroke-miterlimit="10" stroke-linecap="round" stroke-linejoin="round"/>
<rect x="12" y="60" width="40" height="4" rx="2" fill="#43C237"/>
<rect x="12" y="76" width="18" height="4" rx="2" fill="#43C237"/>
<rect x="12" y="54" width="44" height="2" rx="1" fill="#43C237" fill-opacity="0.3"/>
<path d="M15 67L15.9346 68.7137L17.8532 69.0729L16.5122 70.4913L16.7634 72.4271L15 71.59L13.2366 72.4271L13.4878 70.4913L12.1468 69.0729L14.0654 68.7137L15 67Z" fill="#C7EDC3"/>
<path d="M23 67L23.9346 68.7137L25.8532 69.0729L24.5122 70.4913L24.7634 72.4271L23 71.59L21.2366 72.4271L21.4878 70.4913L20.1468 69.0729L22.0654 68.7137L23 67Z" fill="#C7EDC3"/>
<path d="M31 67L31.9346 68.7137L33.8532 69.0729L32.5122 70.4913L32.7634 72.4271L31 71.59L29.2366 72.4271L29.4878 70.4913L28.1468 69.0729L30.0654 68.7137L31 67Z" fill="#C7EDC3"/>
<path d="M39 67L39.9346 68.7137L41.8532 69.0729L40.5122 70.4913L40.7634 72.4271L39 71.59L37.2366 72.4271L37.4878 70.4913L36.1468 69.0729L38.0654 68.7137L39 67Z" fill="#C7EDC3"/>
<path d="M47 67L47.9346 68.7137L49.8532 69.0729L48.5122 70.4913L48.7634 72.4271L47 71.59L45.2366 72.4271L45.4878 70.4913L44.1468 69.0729L46.0654 68.7137L47 67Z" fill="#C7EDC3"/>
<rect x="12" y="85" width="32" height="12" rx="2" fill="#43C237"/>
<rect x="48" y="85" width="32" height="12" rx="2" fill="#43C237"/>
<rect x="18" y="90" width="21" height="2" rx="1" fill="white"/>
<rect x="53" y="90" width="21" height="2" rx="1" fill="white"/>
</svg>
