<svg width="90" height="122" viewBox="0 0 90 122" fill="none" xmlns="http://www.w3.org/2000/svg">
<rect x="1.5" y="1.5" width="87" height="119" rx="4.5" fill="white" stroke="#C3CCD6" stroke-width="3"/>
<rect x="9" y="9" width="72" height="62" rx="2" fill="#C3CCD6" fill-opacity="0.5"/>
<path d="M67 60.5001C67 58.0715 68.9286 56.1429 71.2857 56.1429H72.2857H75.5714" stroke="#C3CCD6" stroke-width="1.2" stroke-miterlimit="10" stroke-linecap="round" stroke-linejoin="round"/>
<path d="M67.0001 60.5001V64" stroke="#C3CCD6" stroke-width="1.2" stroke-miterlimit="10" stroke-linecap="round" stroke-linejoin="round"/>
<path d="M73.4286 58.2857L75.5714 56.1429L73.4286 54" stroke="#C3CCD6" stroke-width="1.2" stroke-miterlimit="10" stroke-linecap="round" stroke-linejoin="round"/>
<path d="M58.6641 55C60.5953 55 61.8625 56.8104 61.8625 58.5001C61.8625 61.8796 56.552 64.6556 56.4313 64.6556C56.3106 64.6556 51 61.8796 51 58.5001C51 56.8104 52.2673 55 54.1984 55C55.2847 55 56.0088 55.5431 56.4313 56.0259C56.8537 55.5431 57.5779 55 58.6641 55Z" stroke="#C3CCD6" stroke-width="1.2" stroke-miterlimit="10" stroke-linecap="round" stroke-linejoin="round"/>
<rect x="12" y="88" width="40" height="4" rx="2" fill="#C3CCD6"/>
<rect x="12" y="104" width="18" height="4" rx="2" fill="#C3CCD6"/>
<rect x="12" y="82" width="44" height="2" rx="1" fill="#C3CCD6" fill-opacity="0.3"/>
<path d="M15 95L15.9346 96.7137L17.8532 97.0729L16.5122 98.4913L16.7634 100.427L15 99.59L13.2366 100.427L13.4878 98.4913L12.1468 97.0729L14.0654 96.7137L15 95Z" fill="#E1E6EB"/>
<path d="M23 95L23.9346 96.7137L25.8532 97.0729L24.5122 98.4913L24.7634 100.427L23 99.59L21.2366 100.427L21.4878 98.4913L20.1468 97.0729L22.0654 96.7137L23 95Z" fill="#E1E6EB"/>
<path d="M31 95L31.9346 96.7137L33.8532 97.0729L32.5122 98.4913L32.7634 100.427L31 99.59L29.2366 100.427L29.4878 98.4913L28.1468 97.0729L30.0654 96.7137L31 95Z" fill="#E1E6EB"/>
<path d="M39 95L39.9346 96.7137L41.8532 97.0729L40.5122 98.4913L40.7634 100.427L39 99.59L37.2366 100.427L37.4878 98.4913L36.1468 97.0729L38.0654 96.7137L39 95Z" fill="#E1E6EB"/>
<path d="M47 95L47.9346 96.7137L49.8532 97.0729L48.5122 98.4913L48.7634 100.427L47 99.59L45.2366 100.427L45.4878 98.4913L44.1468 97.0729L46.0654 96.7137L47 95Z" fill="#E1E6EB"/>
<path d="M41.0752 55.287C40.9465 54.5792 40.2386 54 39.4664 54C38.6941 54 37.9863 54.5792 37.8576 55.287" stroke="#C3CCD6" stroke-width="1.2" stroke-miterlimit="10" stroke-linecap="round" stroke-linejoin="round"/>
<path d="M44.6145 62.6875L43.9067 58.3116C43.778 57.6681 43.2631 57.2176 42.6196 57.2176H37.021C36.3775 57.2176 35.8627 57.6681 35.734 58.3116L35.0261 62.6875C34.8331 63.8458 35.734 64.9398 36.9567 64.9398H42.684C43.9066 64.9398 44.8076 63.8458 44.6145 62.6875Z" stroke="#C3CCD6" stroke-width="1.2" stroke-miterlimit="10" stroke-linecap="round" stroke-linejoin="round"/>
</svg>
