<svg width="90" height="122" viewBox="0 0 90 122" fill="none" xmlns="http://www.w3.org/2000/svg">
<rect x="1.5" y="1.5" width="87" height="119" rx="4.5" fill="white" stroke="#43C237" stroke-width="3"/>
<rect x="9" y="9" width="72" height="53" rx="2" fill="#43C237" fill-opacity="0.5"/>
<rect x="25" y="73" width="40" height="4" rx="2" fill="#43C237"/>
<rect x="36" y="89" width="18" height="4" rx="2" fill="#43C237"/>
<rect x="23" y="67" width="44" height="2" rx="1" fill="#43C237" fill-opacity="0.3"/>
<path d="M29 80L29.9346 81.7137L31.8532 82.0729L30.5122 83.4913L30.7634 85.4271L29 84.59L27.2366 85.4271L27.4878 83.4913L26.1468 82.0729L28.0654 81.7137L29 80Z" fill="#C7EDC3"/>
<path d="M37 80L37.9346 81.7137L39.8532 82.0729L38.5122 83.4913L38.7634 85.4271L37 84.59L35.2366 85.4271L35.4878 83.4913L34.1468 82.0729L36.0654 81.7137L37 80Z" fill="#C7EDC3"/>
<path d="M45 80L45.9346 81.7137L47.8532 82.0729L46.5122 83.4913L46.7634 85.4271L45 84.59L43.2366 85.4271L43.4878 83.4913L42.1468 82.0729L44.0654 81.7137L45 80Z" fill="#C7EDC3"/>
<path d="M53 80L53.9346 81.7137L55.8532 82.0729L54.5122 83.4913L54.7634 85.4271L53 84.59L51.2366 85.4271L51.4878 83.4913L50.1468 82.0729L52.0654 81.7137L53 80Z" fill="#C7EDC3"/>
<path d="M61 80L61.9346 81.7137L63.8532 82.0729L62.5122 83.4913L62.7634 85.4271L61 84.59L59.2366 85.4271L59.4878 83.4913L58.1468 82.0729L60.0654 81.7137L61 80Z" fill="#C7EDC3"/>
<rect x="23" y="98" width="44" height="12" rx="2" fill="#43C237"/>
<rect x="30" y="103" width="30" height="2" rx="1" fill="white"/>
<path d="M16.6641 99.6722C18.5953 99.6722 19.8625 101.483 19.8625 103.172C19.8625 106.552 14.552 109.328 14.4313 109.328C14.3106 109.328 9 106.552 9 103.172C9 101.483 10.2673 99.6722 12.1984 99.6722C13.2847 99.6722 14.0088 100.215 14.4313 100.698C14.8537 100.215 15.5779 99.6722 16.6641 99.6722Z" stroke="#43C237" stroke-width="1.2" stroke-miterlimit="10" stroke-linecap="round" stroke-linejoin="round"/>
<path d="M72 105.5C72 103.071 73.9286 101.143 76.2857 101.143H77.2857H80.5714" stroke="#43C237" stroke-width="1.2" stroke-miterlimit="10" stroke-linecap="round" stroke-linejoin="round"/>
<path d="M72 105.5V109" stroke="#43C237" stroke-width="1.2" stroke-miterlimit="10" stroke-linecap="round" stroke-linejoin="round"/>
<path d="M78.4286 103.286L80.5714 101.143L78.4286 99" stroke="#43C237" stroke-width="1.2" stroke-miterlimit="10" stroke-linecap="round" stroke-linejoin="round"/>
</svg>
