<svg width="90" height="122" viewBox="0 0 90 122" fill="none" xmlns="http://www.w3.org/2000/svg">
<rect x="1.5" y="1.5" width="87" height="119" rx="4.5" fill="white" stroke="#C3CCD6" stroke-width="3"/>
<rect width="90" height="122" rx="7" fill="#C3CCD6" fill-opacity="0.5"/>
<path d="M75.6641 11C77.5953 11 78.8625 12.8104 78.8625 14.5001C78.8625 17.8796 73.552 20.6556 73.4313 20.6556C73.3106 20.6556 68 17.8796 68 14.5001C68 12.8104 69.2673 11 71.1984 11C72.2847 11 73.0088 11.5431 73.4313 12.0259C73.8537 11.5431 74.5779 11 75.6641 11Z" stroke="#C3CCD6" stroke-width="1.2" stroke-miterlimit="10" stroke-linecap="round" stroke-linejoin="round"/>
<rect x="25" y="58" width="40" height="4" rx="2" fill="white"/>
<rect x="36" y="74" width="18" height="4" rx="2" fill="white"/>
<rect x="23" y="52" width="44" height="2" rx="1" fill="white"/>
<path d="M29 65L29.9346 66.7137L31.8532 67.0729L30.5122 68.4913L30.7634 70.4271L29 69.59L27.2366 70.4271L27.4878 68.4913L26.1468 67.0729L28.0654 66.7137L29 65Z" fill="white"/>
<path d="M37 65L37.9346 66.7137L39.8532 67.0729L38.5122 68.4913L38.7634 70.4271L37 69.59L35.2366 70.4271L35.4878 68.4913L34.1468 67.0729L36.0654 66.7137L37 65Z" fill="white"/>
<path d="M45 65L45.9346 66.7137L47.8532 67.0729L46.5122 68.4913L46.7634 70.4271L45 69.59L43.2366 70.4271L43.4878 68.4913L42.1468 67.0729L44.0654 66.7137L45 65Z" fill="white"/>
<path d="M53 65L53.9346 66.7137L55.8532 67.0729L54.5122 68.4913L54.7634 70.4271L53 69.59L51.2366 70.4271L51.4878 68.4913L50.1468 67.0729L52.0654 66.7137L53 65Z" fill="white"/>
<path d="M61 65L61.9346 66.7137L63.8532 67.0729L62.5122 68.4913L62.7634 70.4271L61 69.59L59.2366 70.4271L59.4878 68.4913L58.1468 67.0729L60.0654 66.7137L61 65Z" fill="white"/>
<path d="M58.0751 11.287C57.9464 10.5792 57.2386 10 56.4663 10C55.6941 10 54.9862 10.5792 54.8575 11.287" stroke="#C3CCD6" stroke-width="1.2" stroke-miterlimit="10" stroke-linecap="round" stroke-linejoin="round"/>
<path d="M61.6145 18.6875L60.9067 14.3116C60.778 13.6681 60.2631 13.2176 59.6196 13.2176H54.021C53.3775 13.2176 52.8627 13.6681 52.734 14.3116L52.0261 18.6875C51.8331 19.8458 52.734 20.9398 53.9567 20.9398H59.684C60.9066 20.9398 61.8076 19.8458 61.6145 18.6875Z" stroke="#C3CCD6" stroke-width="1.2" stroke-miterlimit="10" stroke-linecap="round" stroke-linejoin="round"/>
<rect x="9" y="102" width="72" height="12" rx="2" fill="#C3CCD6"/>
<rect x="20" y="107" width="50" height="2" rx="1" fill="white"/>
</svg>
