<svg width="180" height="122" viewBox="0 0 180 122" fill="none" xmlns="http://www.w3.org/2000/svg">
<rect x="1.5" y="1.5" width="177" height="119" rx="4.5" fill="white" stroke="#43C237" stroke-width="3"/>
<rect x="80" y="15" width="44" height="50" rx="2" fill="#43C237" fill-opacity="0.5"/>
<rect x="61" y="51" width="15" height="14" rx="2" fill="#43C237" fill-opacity="0.5"/>
<rect x="61" y="33" width="15" height="14" rx="2" fill="#43C237" fill-opacity="0.5"/>
<rect x="61" y="15" width="15" height="14" rx="2" fill="#43C237" fill-opacity="0.5"/>
<rect x="11" y="15" width="40" height="4" rx="2" fill="#43C237"/>
<rect x="11" y="31" width="18" height="4" rx="2" fill="#43C237"/>
<rect x="11" y="40" width="40" height="2" rx="1" fill="#43C237" fill-opacity="0.3"/>
<rect x="130" y="15" width="38" height="2" rx="1" fill="#43C237" fill-opacity="0.3"/>
<rect x="11" y="45" width="40" height="2" rx="1" fill="#43C237" fill-opacity="0.3"/>
<rect x="130" y="20" width="38" height="2" rx="1" fill="#43C237" fill-opacity="0.3"/>
<rect x="11" y="50" width="40" height="2" rx="1" fill="#43C237" fill-opacity="0.3"/>
<rect x="130" y="25" width="38" height="2" rx="1" fill="#43C237" fill-opacity="0.3"/>
<path d="M14 22L14.9346 23.7137L16.8532 24.0729L15.5122 25.4913L15.7634 27.4271L14 26.59L12.2366 27.4271L12.4878 25.4913L11.1468 24.0729L13.0654 23.7137L14 22Z" fill="#C7EDC3"/>
<path d="M22 22L22.9346 23.7137L24.8532 24.0729L23.5122 25.4913L23.7634 27.4271L22 26.59L20.2366 27.4271L20.4878 25.4913L19.1468 24.0729L21.0654 23.7137L22 22Z" fill="#C7EDC3"/>
<path d="M30 22L30.9346 23.7137L32.8532 24.0729L31.5122 25.4913L31.7634 27.4271L30 26.59L28.2366 27.4271L28.4878 25.4913L27.1468 24.0729L29.0654 23.7137L30 22Z" fill="#C7EDC3"/>
<path d="M38 22L38.9346 23.7137L40.8532 24.0729L39.5122 25.4913L39.7634 27.4271L38 26.59L36.2366 27.4271L36.4878 25.4913L35.1468 24.0729L37.0654 23.7137L38 22Z" fill="#C7EDC3"/>
<path d="M46 22L46.9346 23.7137L48.8532 24.0729L47.5122 25.4913L47.7634 27.4271L46 26.59L44.2366 27.4271L44.4878 25.4913L43.1468 24.0729L45.0654 23.7137L46 22Z" fill="#C7EDC3"/>
<rect x="130" y="43" width="32" height="12" rx="2" fill="#43C237"/>
<rect x="135" y="48" width="22" height="2" rx="1" fill="white"/>
<circle cx="132" cy="63" r="2" fill="#C7EDC3"/>
<circle cx="140" cy="63" r="2" fill="#C7EDC3"/>
<circle cx="148" cy="63" r="2" fill="#C7EDC3"/>
<rect x="9" y="74" width="37" height="4" rx="2" fill="#43C237" fill-opacity="0.5"/>
<rect x="9" y="84" width="162" height="2" rx="1" fill="#43C237" fill-opacity="0.3"/>
<rect x="9" y="89" width="142" height="2" rx="1" fill="#43C237" fill-opacity="0.3"/>
<rect x="9" y="99" width="142" height="2" rx="1" fill="#43C237" fill-opacity="0.3"/>
<rect x="9" y="94" width="153" height="2" rx="1" fill="#43C237" fill-opacity="0.3"/>
<rect x="9" y="104" width="153" height="2" rx="1" fill="#43C237" fill-opacity="0.3"/>
</svg>
