<svg width="180" height="122" viewBox="0 0 180 122" fill="none" xmlns="http://www.w3.org/2000/svg">
<rect x="1.5" y="1.5" width="177" height="119" rx="4.5" fill="white" stroke="#43C237" stroke-width="3"/>
<rect x="18" y="9" width="69" height="39" rx="2" fill="#43C237" fill-opacity="0.5"/>
<rect x="18" y="50" width="69" height="39" rx="2" fill="#43C237" fill-opacity="0.5"/>
<path d="M18 93C18 91.8954 18.8954 91 20 91H85C86.1046 91 87 91.8954 87 93V119H18V93Z" fill="#43C237" fill-opacity="0.5"/>
<rect x="96" y="13" width="40" height="4" rx="2" fill="#43C237"/>
<rect x="96" y="29" width="18" height="4" rx="2" fill="#43C237"/>
<rect x="96" y="38" width="67" height="2" rx="1" fill="#43C237" fill-opacity="0.3"/>
<rect x="96" y="43" width="67" height="2" rx="1" fill="#43C237" fill-opacity="0.3"/>
<rect x="96" y="48" width="44" height="2" rx="1" fill="#43C237" fill-opacity="0.3"/>
<path d="M99 20L99.9346 21.7137L101.853 22.0729L100.512 23.4913L100.763 25.4271L99 24.59L97.2366 25.4271L97.4878 23.4913L96.1468 22.0729L98.0654 21.7137L99 20Z" fill="#C7EDC3"/>
<path d="M107 20L107.935 21.7137L109.853 22.0729L108.512 23.4913L108.763 25.4271L107 24.59L105.237 25.4271L105.488 23.4913L104.147 22.0729L106.065 21.7137L107 20Z" fill="#C7EDC3"/>
<path d="M115 20L115.935 21.7137L117.853 22.0729L116.512 23.4913L116.763 25.4271L115 24.59L113.237 25.4271L113.488 23.4913L112.147 22.0729L114.065 21.7137L115 20Z" fill="#C7EDC3"/>
<path d="M123 20L123.935 21.7137L125.853 22.0729L124.512 23.4913L124.763 25.4271L123 24.59L121.237 25.4271L121.488 23.4913L120.147 22.0729L122.065 21.7137L123 20Z" fill="#C7EDC3"/>
<path d="M131 20L131.935 21.7137L133.853 22.0729L132.512 23.4913L132.763 25.4271L131 24.59L129.237 25.4271L129.488 23.4913L128.147 22.0729L130.065 21.7137L131 20Z" fill="#C7EDC3"/>
<rect x="96" y="56" width="44" height="12" rx="2" fill="#43C237"/>
<rect x="103" y="61" width="30" height="2" rx="1" fill="white"/>
<circle cx="98" cy="76" r="2" fill="#C7EDC3"/>
<circle cx="106" cy="76" r="2" fill="#C7EDC3"/>
<circle cx="114" cy="76" r="2" fill="#C7EDC3"/>
<rect x="96" y="87" width="37" height="4" rx="2" fill="#43C237" fill-opacity="0.5"/>
<rect x="96" y="93" width="57" height="2" rx="1" fill="#43C237" fill-opacity="0.3"/>
<rect x="96" y="98" width="50" height="2" rx="1" fill="#43C237" fill-opacity="0.3"/>
<rect x="96" y="103" width="54" height="2" rx="1" fill="#43C237" fill-opacity="0.3"/>
</svg>
